<svg width="18" height="21" viewBox="0 0 18 21" fill="none" xmlns="http://www.w3.org/2000/svg">
<g clip-path="url(#clip0_237_404)">
<path fill-rule="evenodd" clip-rule="evenodd" d="M12.6419 5.0422C14.9594 5.0422 16.4414 7.25642 16.4414 7.25642C16.4414 7.25642 14.1807 8.46781 14.1807 11.0987C14.1807 14.2212 17.0206 15.1295 17.0206 15.1295C17.0206 15.1295 14.7791 20.3814 12.2621 20.3814C10.8467 20.3814 10.7521 19.5774 8.87126 19.5774C7.23785 19.5774 6.68701 20.3814 5.44272 20.3814C3.06784 20.3814 0 15.262 0 11.0987C0 6.77401 3.10607 5.0422 5.05312 5.0422C6.76297 5.0422 7.47505 6.03577 8.85215 6.03577C10.0112 6.03577 10.9232 5.0422 12.6419 5.0422ZM12.2434 0.632282C12.585 2.75197 10.638 5.37356 8.31111 5.28828C7.96904 2.59116 10.4767 0.774569 12.2434 0.632282Z" fill="white"/>
</g>
<defs>
<clipPath id="clip0_237_404">
<rect width="18" height="20.8551" fill="white"/>
</clipPath>
</defs>
</svg>
