<svg width="56" height="56" viewBox="0 0 56 56" fill="none" xmlns="http://www.w3.org/2000/svg">
<g clip-path="url(#clip0_237_368)">
<path d="M28 56C43.464 56 56 43.464 56 28C56 12.536 43.464 0 28 0C12.536 0 0 12.536 0 28C0 43.464 12.536 56 28 56Z" fill="#C2E8C2"/>
<path d="M19.902 14H38C39.1046 14 40 14.8954 40 16V42H19C17.8954 42 17 41.1046 17 40V14H15.5234H19.902Z" fill="white" stroke="#489F48" stroke-width="2" stroke-linejoin="round"/>
<path d="M21 40C21 41.5 20 42 19 42H40C41 42 42 41.5 42 40.5V39H21V40Z" fill="white" stroke="#489F48" stroke-width="2" stroke-linejoin="round"/>
<path d="M35 19H23C22.4477 19 22 19.4477 22 20V25C22 25.5523 22.4477 26 23 26H35C35.5523 26 36 25.5523 36 25V20C36 19.4477 35.5523 19 35 19Z" fill="#95D295"/>
<path d="M23 30H35" stroke="#95D295" stroke-width="2" stroke-linecap="round" stroke-linejoin="round"/>
<path d="M23 34H32" stroke="#95D295" stroke-width="2" stroke-linecap="round" stroke-linejoin="round"/>
<path d="M14 16C14 15 14.375 14 15.5 14C16.625 14 17 15 17 16V18H14V16Z" fill="white" stroke="#489F48" stroke-width="2" stroke-linejoin="round"/>
</g>
<defs>
<clipPath id="clip0_237_368">
<rect width="56" height="56" fill="white"/>
</clipPath>
</defs>
</svg>
